<?xml version="1.0" encoding="UTF-8"?>
<svg width="512" height="512" viewBox="0 0 24 24" fill="none" xmlns="http://www.w3.org/2000/svg">
    <path d="M21.5 12.5C21.5 17.7467 17.2467 22 12 22C6.75329 22 2.5 17.7467 2.5 12.5C2.5 7.25329 6.75329 3 12 3C12.3358 3 12.6678 3.01847 12.9951 3.05462C13.3163 3.09013 13.5903 3.36213 13.6433 3.68063C13.6964 3.99912 13.5264 4.31312 13.2289 4.45587C11.9447 5.10413 11.0833 6.44288 11.0833 8C11.0833 10.3012 12.9488 12.1667 15.25 12.1667C16.8071 12.1667 18.1459 11.3053 18.7941 10.0211C18.9369 9.72363 19.2509 9.55363 19.5694 9.60675C19.8879 9.65987 20.1599 9.93388 20.1954 10.2551C20.2316 10.5824 20.25 10.9144 20.25 11.25" stroke="#14B8A6" stroke-width="1.5" stroke-linecap="round" stroke-linejoin="round"/>
    <path d="M8 15L12 11M12 11L16 7M12 11L16 15M12 11L8 7" stroke="#14B8A6" stroke-width="1.5" stroke-linecap="round" stroke-linejoin="round"/>
</svg>
